<?xml version="1.0" standalone="no"?><!DOCTYPE svg PUBLIC "-//W3C//DTD SVG 1.1//EN" "http://www.w3.org/Graphics/SVG/1.1/DTD/svg11.dtd"><svg t="1569390582061" class="icon" viewBox="0 0 1024 1024" version="1.1" xmlns="http://www.w3.org/2000/svg" p-id="1379" xmlns:xlink="http://www.w3.org/1999/xlink" width="200" height="200"><defs><style type="text/css"></style></defs><path d="M141.1578125 588.606875c-31.44375 74.02875-36.5484375 144.6534375-11.3053125 157.846875 17.41125 9.09 44.705625-11.608125 70.2525-49.6021875 10.1165625 41.3971875 35.1496875 78.8784375 70.9059375 108.946875-37.50375 13.845-62.0015625 36.455625-62.0015625 62.0925 0 42.144375 66.2896875 76.220625 148.104375 76.220625 73.79625 0 134.9128125-27.691875 146.19375-64.0978125 3.03-0.0459375 14.6840625-0.0459375 17.62125 0 11.3278125 36.36 72.49125 64.0978125 146.2396875 64.0978125 81.8128125 0 148.104375-34.123125 148.104375-76.220625 0-25.5909375-24.4734375-48.2475-62.0015625-62.0925 35.7084375-30.1153125 60.8334375-67.5496875 70.9040625-108.946875 25.5478125 37.9940625 52.771875 58.6921875 70.2065625 49.6021875 25.265625-13.1934375 20.2790625-83.865-11.28-157.846875-24.7078125-58.179375-58.228125-101.019375-83.8659375-110.4825 0.373125-3.6834375 0.55875-7.460625 0.55875-11.1890625 0-22.47-6.2446875-43.261875-16.9209375-60.18375 0.1865625-1.3059375 0.1865625-2.656875 0.1865625-3.9628125 0-10.348125-2.47125-20.0446875-6.669375-28.43625-6.4771875-151.2271875-104.934375-271.314375-264.249375-271.314375-159.40875 0-257.911875 120.0871875-264.3215625 271.314375-4.2421875 8.4384375-6.6890625 18.1340625-6.6890625 28.43625 0 1.3059375 0.0928125 2.6578125 0.140625 3.9628125-10.5825 16.921875-16.8290625 37.666875-16.8290625 60.18375 0 3.729375 0.140625 7.4578125 0.466875 11.1890625-25.4540625 9.463125-59.08875 52.3509375-83.7496875 110.4825z" fill="#ffffff" p-id="1380"></path></svg>